<svg width="36" height="36" viewBox="0 0 36 36" fill="none" xmlns="http://www.w3.org/2000/svg">
<path d="M18.004 8.7681C12.8962 8.7681 8.77613 12.8881 8.77613 17.996C8.77613 23.1038 12.8962 27.2239 18.004 27.2239C23.1119 27.2239 27.2319 23.1038 27.2319 17.996C27.2319 12.8881 23.1119 8.7681 18.004 8.7681ZM18.004 23.9953C14.7032 23.9953 12.0047 21.3049 12.0047 17.996C12.0047 14.6871 14.6951 11.9967 18.004 11.9967C21.3129 11.9967 24.0033 14.6871 24.0033 17.996C24.0033 21.3049 21.3049 23.9953 18.004 23.9953ZM29.7617 8.39063C29.7617 9.58728 28.798 10.543 27.6094 10.543C26.4127 10.543 25.457 9.57925 25.457 8.39063C25.457 7.20201 26.4207 6.23826 27.6094 6.23826C28.798 6.23826 29.7617 7.20201 29.7617 8.39063ZM35.8735 10.5751C35.737 7.69191 35.0784 5.13798 32.9662 3.0338C30.862 0.929615 28.3081 0.271054 25.4249 0.126492C22.4533 -0.042164 13.5467 -0.042164 10.5751 0.126492C7.69994 0.263023 5.14601 0.921584 3.0338 3.02577C0.921584 5.12995 0.271054 7.68388 0.126492 10.5671C-0.042164 13.5387 -0.042164 22.4453 0.126492 25.4168C0.263023 28.3001 0.921584 30.854 3.0338 32.9582C5.14601 35.0624 7.69191 35.7209 10.5751 35.8655C13.5467 36.0341 22.4533 36.0341 25.4249 35.8655C28.3081 35.7289 30.862 35.0704 32.9662 32.9582C35.0704 30.854 35.7289 28.3001 35.8735 25.4168C36.0422 22.4453 36.0422 13.5467 35.8735 10.5751ZM32.0346 28.6052C31.4081 30.1794 30.1954 31.3921 28.6133 32.0265C26.2441 32.9662 20.6222 32.7494 18.004 32.7494C15.3858 32.7494 9.75594 32.9582 7.39476 32.0265C5.82064 31.4001 4.60792 30.1874 3.97345 28.6052C3.0338 26.236 3.25064 20.6142 3.25064 17.996C3.25064 15.3778 3.04183 9.74791 3.97345 7.38673C4.59989 5.8126 5.8126 4.59989 7.39476 3.96542C9.76397 3.02577 15.3858 3.24261 18.004 3.24261C20.6222 3.24261 26.2521 3.0338 28.6133 3.96542C30.1874 4.59186 31.4001 5.80457 32.0346 7.38673C32.9742 9.75594 32.7574 15.3778 32.7574 17.996C32.7574 20.6142 32.9742 26.2441 32.0346 28.6052Z" fill="black"/>
</svg>
