<svg width="78" height="68" viewBox="0 0 78 68" fill="none" xmlns="http://www.w3.org/2000/svg">
<path d="M70.6875 34H58.5V24.2857C58.5 18.9277 62.8723 14.5714 68.25 14.5714H69.4688C71.4949 14.5714 73.125 12.9473 73.125 10.9286V3.64286C73.125 1.62411 71.4949 0 69.4688 0H68.25C54.7828 0 43.875 10.8679 43.875 24.2857V60.7143C43.875 64.7366 47.1504 68 51.1875 68H70.6875C74.7246 68 78 64.7366 78 60.7143V41.2857C78 37.2634 74.7246 34 70.6875 34ZM26.8125 34H14.625V24.2857C14.625 18.9277 18.9973 14.5714 24.375 14.5714H25.5938C27.6199 14.5714 29.25 12.9473 29.25 10.9286V3.64286C29.25 1.62411 27.6199 0 25.5938 0H24.375C10.9078 0 0 10.8679 0 24.2857V60.7143C0 64.7366 3.27539 68 7.3125 68H26.8125C30.8496 68 34.125 64.7366 34.125 60.7143V41.2857C34.125 37.2634 30.8496 34 26.8125 34Z" fill="white"/>
</svg>
